<svg xmlns="http://www.w3.org/2000/svg" width="424.686" height="164.905" viewBox="0 0 424.686 164.905"><defs><style>.a{fill:#fff;}.b{fill:#3d8dcc;}.c{fill:#211715;}.d{fill:#cfcfcf;}.e{fill:#7abee6;}</style></defs><path class="a" d="M241.072,97.843c-.009-22.163-.021-51.54-.028-70.293a6.639,6.639,0,0,1,6.642-6.642c28.616-.009,111.536-.037,145.465-.05A6.644,6.644,0,0,1,399.8,27.5c0,25.157.01,66.016.02,92.046,5.255,7.384,16.529,22.925,22.041,32.339a6.084,6.084,0,0,1,.831,3.084c0,.961-.02,2.124-.02,3.325a4.612,4.612,0,0,1-4.612,4.606H222.042a3.844,3.844,0,0,1-3.846-3.844c0-5.932-.022,1.741-.022-4.078a6.125,6.125,0,0,1,.834-3.1c5.572-9.516,16.892-25.546,22.072-32.82C241.078,113.7,241.075,106.3,241.072,97.843Z"/><path class="b" d="M251.551,30.613c.009,22.879.036,84.1.036,84.1,23.263-.009,115.15-.041,137.727-.047-.01-24.743-.027-63.321-.036-84.1C389.278,30.569,271.859,30.609,251.551,30.613Z"/><path class="c" d="M243.072,97.843q-.009-20.21-.016-40.42,0-9.754-.008-19.509l0-8.75c0-2.421.26-4.767,2.769-5.874,1.535-.678,3.536-.383,5.183-.383l5.026,0,12.159,0,29.9-.01,65.609-.022,26.261-.009c1.962,0,4.215-.348,5.9.859,2.147,1.534,1.94,3.938,1.94,6.286q0,8.567,0,17.133,0,19.491.009,38.981l.006,18.951,0,8.879q0,2,0,3.993a8.426,8.426,0,0,0,.073,2.137,5.106,5.106,0,0,0,.913,1.477c6.572,9.211,13.259,18.375,19.275,27.964.65,1.035,1.3,2.073,1.91,3.131.874,1.511.7,3.066.685,4.754-.007,1.2-.046,2.267-1.115,3.028a3.353,3.353,0,0,1-2.1.469H224a6.618,6.618,0,0,1-2.8-.2c-1.5-.787-.9-2.672-1.011-4.047a2,2,0,0,0-4,0c-.022.216,0,.437-.011.654h4a8.816,8.816,0,0,1,.252-3.79,29.451,29.451,0,0,1,2.946-4.96c2.415-3.838,4.932-7.611,7.48-11.361q3.738-5.5,7.572-10.941,1.617-2.3,3.244-4.59a7.66,7.66,0,0,0,1.336-2.073,14.375,14.375,0,0,0,.07-3.557q0-9.1-.007-18.194c0-2.574-4-2.578-4,0q0,10.609.008,21.219l.273-1.009c-7.273,10.212-14.6,20.459-21.1,31.19a11.555,11.555,0,0,0-2.065,5.329,15.35,15.35,0,0,0-.008,2.737,2,2,0,0,0,4,0c.016-.217-.011-.438.011-.654h-4c.181,2.265-.187,4.281,1.409,6.187,1.443,1.723,3.462,2.06,5.574,2.06H416.118a11.027,11.027,0,0,0,4.592-.574,6.554,6.554,0,0,0,3.259-3.081,11.432,11.432,0,0,0,.716-5.118,10.157,10.157,0,0,0-1.1-5.252c-.635-1.151-1.355-2.262-2.054-3.376-1.621-2.583-3.3-5.127-5.012-7.654-3.508-5.191-7.124-10.307-10.762-15.408q-2.1-2.952-4.213-5.9l.273,1.01q-.014-37.323-.02-74.647,0-8.391,0-16.782a9.01,9.01,0,0,0-3.256-7.356c-2.114-1.678-4.474-1.905-7.064-1.9l-25.656.009-64.744.022-52.87.017a8.983,8.983,0,0,0-7.064,3c-1.991,2.347-2.1,4.99-2.1,7.913q0,9.077.007,18.151.007,20.25.016,40.5,0,4.684,0,9.369C239.073,100.417,243.073,100.421,243.072,97.843Z"/><path class="c" d="M406.749,150.4H240.056c-2.247,0-4.505-.063-6.752,0-.1,0-.2,0-.3,0-2.574,0-2.578,4,0,4H399.7c2.248,0,4.506.063,6.753,0,.1,0,.2,0,.3,0,2.573,0,2.578-4,0-4Z"/><path class="c" d="M249.551,30.613q.008,19.252.016,38.506.009,18.879.017,37.759,0,3.918,0,7.837a2.03,2.03,0,0,0,2,2l20.5-.008L302,116.7l33.275-.012,30.651-.01,21.606-.007h1.779a2.03,2.03,0,0,0,2-2q-.015-34.076-.029-68.152,0-7.972-.007-15.947a2.03,2.03,0,0,0-2-2l-11.888,0-28.977.01L311.52,28.6l-34.884.011-23.449.007h-1.636c-2.573,0-2.578,4,0,4q10.74,0,21.479-.006l33.881-.011,37.181-.012,30.527-.01,9.807,0c1.524,0,3.132.147,4.651,0a1.924,1.924,0,0,1,.2,0l-2-2q.015,33.057.028,66.112,0,8.993.008,17.987l2-2-20.178.006-29.748.01-33.265.011-30.8.011-21.909.008h-1.828l2,2q-.01-11.079-.01-22.158l-.018-42.325q0-9.81-.008-19.619C253.55,28.04,249.55,28.035,249.551,30.613Z"/><path class="a" d="M358.7,114.7c0-13.474,0-49.2,0-70.072H282.171l-.006,0v70.09l9.468,0Z"/><path class="c" d="M360.7,114.68V44.62a2.029,2.029,0,0,0-2-2H282.906c-1.382,0-2.657.433-2.741,2.125-.048.973,0,1.961,0,2.935v67.031c0,2.573,4,2.578,4,0V44.628l-.586,1.414.008-.008-1.414.586H358.7l-2-2v70.06c0,2.574,4,2.578,4,0Z"/><path class="d" d="M302.261,65.564H338.6c2.574,0,2.578-4,0-4H302.261c-2.574,0-2.578,4,0,4Z"/><path class="d" d="M302.261,80.29H338.6c2.574,0,2.578-4,0-4H302.261c-2.574,0-2.578,4,0,4Z"/><path class="d" d="M302.261,95.016H322.3c2.574,0,2.578-4,0-4H302.261c-2.574,0-2.578,4,0,4Z"/><path class="c" d="M389.314,112.665q-26.1.032-52.2.019-28.713.007-57.424.027-14.052,0-28.1.007l2,2q-.006-11.079-.011-22.159-.011-21.163-.02-42.327,0-9.809-.008-19.618l-2,2,21.478-.007,33.88-.012,37.18-.012,30.527-.01,9.807,0c1.524,0,3.132.147,4.651,0,.066-.006.135,0,.2,0l-2-2q.024,33.057.032,66.113l.006,17.984c0,2.573,4,2.578,4,0q-.011-34.074-.028-68.149,0-7.974-.01-15.948a2.03,2.03,0,0,0-2-2l-11.889,0-28.977.01-36.893.012-34.882.012-23.448.008h-1.636a2.03,2.03,0,0,0-2,2q.008,19.253.017,38.506.007,18.88.018,37.761,0,3.919,0,7.837a2.028,2.028,0,0,0,2,2q26.313-.032,52.628-.021,28.713-.015,57.427-.019,13.835-.006,27.669-.013C391.887,116.662,391.892,112.662,389.314,112.665Z"/><path class="b" d="M222.411,80.483,197.173,59.307a1.265,1.265,0,0,0-2.077.972V72.462a1.265,1.265,0,0,1-1.266,1.266H172.566a1.266,1.266,0,0,0-1.266,1.266V88.2a1.266,1.266,0,0,0,1.266,1.266H193.83a1.266,1.266,0,0,1,1.266,1.267v11.888a1.266,1.266,0,0,0,2.08.97L222.41,82.422A1.265,1.265,0,0,0,222.411,80.483Z"/><path class="a" d="M19.3,114.366H148.66V160.9H10.393c0-13.94,0-32.6,0-46.536H19.3"/><path class="a" d="M2,66.257c.008.731.008,22.554.008,31.758H140.276c0-1.212,0-1.887,0-1.887,0-9.645,0-20.322,0-29.871Z"/><path class="a" d="M20.508,39.42H5.362V29.885H2.532V19.4H140.8V29.885h2.83s0,4.573,0,9.535H20.508"/><path class="b" d="M19.3,114.366V98.015H156.628v16.351Z"/><path class="c" d="M21.3,114.366V98.015l-2,2H150.569c1.887,0,3.823.126,5.706,0,.116-.008.236,0,.353,0l-2-2v16.351l2-2H32.959c-4.475,0-8.99-.176-13.463,0-.064,0-.128,0-.193,0-2.573,0-2.578,4,0,4H156.628a2.03,2.03,0,0,0,2-2V98.015a2.03,2.03,0,0,0-2-2H36.82c-5.711,0-11.44-.136-17.149,0-.123,0-.245,0-.368,0a2.029,2.029,0,0,0-2,2v16.351C17.3,116.94,21.3,116.944,21.3,114.366Z"/><path class="c" d="M138.275,67.515V96.128c0,2.574,4,2.579,4,0V67.515c0-2.574-4-2.578-4,0Z"/><path class="c" d="M13.432,78.948H129.061c2.573,0,2.578-4,0-4H13.432c-2.573,0-2.578,4,0,4Z"/><path class="c" d="M13.432,89.324H129.061c2.573,0,2.578-4,0-4H13.432c-2.573,0-2.578,4,0,4Z"/><path class="c" d="M19.3,96.015H2.008l2,2q0-14.268,0-28.537c0-1.074.005-2.147,0-3.221l-2,2H19.3c2.574,0,2.578-4,0-4H2a2.028,2.028,0,0,0-2,2c.071,8.051.008,16.1.008,24.156v7.6a2.028,2.028,0,0,0,2,2H19.3c2.574,0,2.578-4,0-4Z"/><path class="c" d="M146.66,115.938V160.9l2-2H16.037c-1.775,0-3.638-.163-5.407,0-.078.007-.159,0-.237,0l2,2q0-23.268,0-46.536l-2,2H19.3c2.574,0,2.578-4,0-4H10.389a2.03,2.03,0,0,0-2,2q.006,23.268,0,46.536a2.029,2.029,0,0,0,2,2H131.631c5.586,0,11.209.193,16.792,0,.079,0,.158,0,.237,0a2.028,2.028,0,0,0,2-2V115.938c0-2.574-4-2.578-4,0Z"/><path class="c" d="M20.769,139.634H138.074c2.574,0,2.578-4,0-4H20.769c-2.574,0-2.578,4,0,4Z"/><path class="c" d="M20.769,128.314H138.074c2.574,0,2.578-4,0-4H20.769c-2.574,0-2.578,4,0,4Z"/><path class="c" d="M20.769,150.849H132.31c2.574,0,2.578-4,0-4H20.769c-2.574,0-2.578,4,0,4Z"/><path class="b" d="M9.5,2H145.462V19.4H9.5Z"/><path class="c" d="M145.629,38.165v-8.28a2.029,2.029,0,0,0-2-2H133.046a2,2,0,0,0,0,4h10.583l-2-2v8.28a2,2,0,0,0,4,0Z"/><path class="c" d="M138.8,19.4V29.885a2,2,0,0,0,4,0V19.4a2,2,0,1,0-4,0Z"/><path class="c" d="M3.362,29.885V39.42a2.029,2.029,0,0,0,2,2H20.508c2.574,0,2.578-4,0-4H5.362l2,2V29.885c0-2.574-4-2.578-4,0Z"/><path class="c" d="M16.474,17.4H2.532a2.029,2.029,0,0,0-2,2V29.885a2.029,2.029,0,0,0,2,2H120.516c2.574,0,2.578-4,0-4H2.532l2,2V19.4l-2,2H16.474c2.573,0,2.578-4,0-4Z"/><path class="c" d="M9.5,4H134.785q5.338,0,10.677,0l-2-2V19.4l2-2H9.5l2,2V2c0-2.574-4-2.578-4,0V19.4a2.029,2.029,0,0,0,2,2H145.462a2.03,2.03,0,0,0,2-2V2a2.029,2.029,0,0,0-2-2q-15.447,0-30.893,0H9.5C6.929,0,6.925,4,9.5,4Z"/><path class="e" d="M20.508,39.42H156.467V66.257H20.508Z"/><path class="c" d="M20.508,41.42H156.467l-2-2V66.257l2-2H20.508l2,2V39.42c0-2.573-4-2.578-4,0V66.257a2.029,2.029,0,0,0,2,2H156.467a2.029,2.029,0,0,0,2-2V39.42a2.029,2.029,0,0,0-2-2q-15.447,0-30.893,0H20.508C17.934,37.42,17.93,41.42,20.508,41.42Z"/><path class="c" d="M42.553,39.42V66.257c0,2.574,4,2.578,4,0V65.231c0-2.574-4-2.578-4,0v1.026c0,2.574,4,2.578,4,0V39.42c0-2.573-4-2.578-4,0Z"/><path class="c" d="M32.248,39.649V66.028c0,2.574,4,2.578,4,0V39.649c0-2.573-4-2.578-4,0Z"/><path class="a" d="M145.933,47.1V58.577H101.508V58.4s0-9.4-.011-11.3Z"/><path class="c" d="M143.933,47.1V58.577l2-2H101.508l2,2c0-3.825.01-7.651-.011-11.477l-2,2h44.436c2.574,0,2.579-4,0-4H101.5a2.028,2.028,0,0,0-2,2c.021,3.826.011,7.652.011,11.477a2.03,2.03,0,0,0,2,2h44.425a2.028,2.028,0,0,0,2-2V47.1C147.933,44.526,143.933,44.522,143.933,47.1Z"/></svg>