<?xml version="1.0" standalone="no"?>
<!DOCTYPE svg PUBLIC "-//W3C//DTD SVG 20010904//EN"
 "http://www.w3.org/TR/2001/REC-SVG-20010904/DTD/svg10.dtd">
<svg version="1.0" xmlns="http://www.w3.org/2000/svg"
 width="512.000000pt" height="512.000000pt" viewBox="0 0 512.000000 512.000000"
 preserveAspectRatio="xMidYMid meet">
<metadata>
Created by potrace 1.14, written by Peter Selinger 2001-2017
</metadata>
<g transform="translate(0.000000,512.000000) scale(0.100000,-0.100000)"
fill="#000000" stroke="none">
<path d="M2448 4935 c-2 -1 -32 -5 -68 -9 -320 -30 -652 -221 -895 -513 -75
-89 -115 -145 -146 -203 -13 -25 -27 -46 -31 -48 -5 -2 -8 -12 -8 -22 0 -10
-4 -21 -8 -24 -5 -3 -21 -36 -37 -73 -15 -37 -36 -86 -45 -108 -10 -22 -25
-64 -35 -92 -9 -29 -22 -53 -28 -54 -7 -1 -26 -2 -43 -4 -75 -6 -135 -16 -158
-25 -21 -8 -26 -16 -26 -45 0 -19 -1 -38 -2 -42 -17 -73 -16 -83 16 -105 75
-53 89 -82 101 -208 10 -110 21 -210 29 -265 3 -22 8 -60 11 -85 24 -242 93
-419 255 -662 53 -79 90 -145 88 -155 -9 -43 -159 10 -273 97 -67 50 -175 161
-230 235 -95 128 -197 374 -229 555 -11 62 -14 132 -11 260 4 171 5 192 26
296 5 28 12 62 14 75 3 14 22 88 44 165 46 166 65 244 76 319 2 17 8 50 13 75
4 25 7 63 6 85 -1 22 -2 67 -4 100 -2 56 -15 131 -27 165 -3 8 -8 23 -10 34
-5 26 -51 117 -71 140 -29 32 -96 57 -139 50 -53 -8 -103 -34 -127 -66 -18
-26 -19 -31 -5 -115 31 -191 17 -248 -141 -568 -124 -251 -167 -368 -184 -495
-2 -19 -7 -42 -10 -50 -3 -8 -8 -33 -10 -55 -3 -22 -8 -56 -11 -75 -27 -176
-27 -508 0 -630 4 -14 8 -36 11 -50 3 -14 10 -41 16 -60 6 -19 12 -42 14 -50
13 -108 188 -433 311 -577 25 -29 42 -56 39 -61 -2 -4 -17 -66 -31 -138 -14
-71 -28 -138 -30 -149 -3 -11 -10 -45 -16 -75 -14 -70 -17 -75 -37 -56 -24 21
-114 65 -167 81 -25 7 -72 12 -105 12 -47 -2 -64 -7 -84 -26 -29 -27 -42 -77
-31 -118 6 -28 89 -115 154 -163 19 -14 42 -32 52 -40 9 -8 32 -26 49 -40 64
-49 79 -69 74 -92 -3 -13 -7 -32 -8 -43 -2 -11 -11 -54 -20 -95 -8 -41 -18
-92 -21 -112 -6 -38 -6 -38 20 -28 38 14 179 19 261 8 38 -5 111 -22 163 -39
51 -17 99 -32 105 -34 38 -8 247 -108 308 -147 29 -19 73 -47 97 -63 25 -15
50 -32 55 -37 6 -5 26 -20 45 -33 l34 -24 -49 -22 c-39 -17 -72 -22 -159 -23
-155 -4 -176 -19 -178 -130 -2 -123 79 -208 221 -234 49 -9 240 -8 272 1 8 2
29 7 45 12 47 12 191 83 289 142 49 29 90 53 93 53 2 0 9 5 16 10 7 6 40 31
74 56 l63 46 92 -22 c51 -12 100 -23 108 -25 8 -2 35 -10 60 -19 25 -9 52 -18
60 -20 36 -9 156 -61 162 -70 4 -6 8 -7 8 -3 0 8 71 -28 145 -74 22 -14 45
-29 52 -32 6 -4 18 0 27 9 14 13 16 53 13 310 -1 162 1 294 5 294 9 0 79 -81
114 -132 16 -24 31 -45 34 -48 3 -3 23 -32 45 -65 108 -164 177 -237 320 -341
81 -59 145 -98 145 -90 0 4 10 0 23 -8 99 -63 326 -21 438 82 44 41 52 53 56
94 9 82 -27 110 -172 134 -110 18 -228 101 -304 213 -45 66 -93 159 -122 236
-65 173 34 266 131 124 68 -100 163 -185 289 -258 73 -43 180 -89 225 -97 16
-3 33 -7 37 -10 11 -6 124 -18 179 -18 273 1 542 124 698 320 48 59 89 158 71
170 -5 3 -7 9 -4 14 3 5 -9 20 -26 33 -42 32 -72 30 -233 -22 -70 -22 -155
-45 -189 -51 -59 -10 -179 -8 -222 3 -11 3 -33 8 -50 13 -44 10 -154 63 -200
96 -78 55 -89 63 -137 101 -122 96 -110 181 34 231 148 52 380 185 503 289 69
58 216 206 260 262 94 119 237 367 250 434 2 13 8 28 13 35 5 6 12 22 16 36 3
14 13 50 22 80 16 59 18 67 34 145 27 136 30 394 6 555 -3 19 -8 52 -11 73 -9
65 -16 111 -20 132 -11 58 -25 124 -34 153 -5 18 -10 35 -10 37 -1 3 -1 6 -2
8 0 1 -2 9 -4 18 -6 32 -79 206 -113 269 -35 67 -79 133 -181 277 -95 134
-112 234 -62 374 22 60 19 93 -14 161 -22 45 -62 63 -134 61 -56 -2 -115 -27
-156 -66 -35 -33 -80 -125 -92 -185 -10 -53 -10 -194 1 -242 3 -14 9 -41 13
-60 4 -19 8 -37 8 -40 7 -29 30 -98 38 -107 5 -7 6 -17 2 -23 -3 -5 -2 -10 3
-10 5 0 9 -6 10 -12 0 -7 23 -73 51 -146 50 -129 115 -356 125 -437 3 -22 9
-62 13 -90 16 -112 7 -324 -17 -420 -6 -22 -13 -51 -16 -64 -3 -13 -19 -61
-36 -105 -102 -265 -292 -506 -471 -598 -63 -32 -97 -34 -118 -7 -22 29 -10
73 36 138 57 79 134 248 149 327 2 10 9 37 14 59 12 44 22 104 27 150 2 17 6
43 9 58 25 134 26 482 0 622 -3 17 -7 46 -9 65 -2 19 -4 35 -5 35 -1 0 -3 7
-5 15 -41 211 -145 431 -279 595 -88 108 -282 280 -371 329 -16 9 -48 27 -70
39 -137 77 -391 154 -600 182 -49 7 -291 15 -297 10z"/>
</g>
</svg>
